<!DOCTYPE svg PUBLIC "-//W3C//DTD SVG 20010904//EN" "http://www.w3.org/TR/2001/REC-SVG-20010904/DTD/svg10.dtd">
<svg version="1.0" xmlns="http://www.w3.org/2000/svg" width="160px" height="292px" viewBox="0 0 1600 2920" preserveAspectRatio="xMidYMid meet">
<g id="layer101" fill="#121212" stroke="none">
 <path d="M666 2819 c-34 -27 -466 -500 -466 -511 0 -4 11 -14 23 -23 23 -14 34 -11 233 79 282 126 285 128 317 149 24 16 27 25 27 71 0 28 -5 57 -12 64 -7 7 -26 51 -43 99 -18 48 -36 88 -42 90 -5 2 -22 -6 -37 -18z"/>
 <path d="M942 2827 c-5 -6 -22 -46 -37 -87 -15 -41 -34 -82 -41 -91 -8 -9 -14 -38 -14 -67 0 -44 4 -54 24 -68 14 -8 139 -67 278 -130 224 -102 255 -113 275 -103 13 7 23 18 23 24 0 12 -275 320 -399 448 -77 79 -95 92 -109 74z"/>
 <path d="M735 2453 c-44 -20 -156 -69 -250 -110 -236 -104 -265 -120 -265 -143 0 -16 50 -101 306 -522 29 -48 90 -144 136 -213 46 -68 100 -152 120 -185 21 -33 41 -60 45 -60 4 0 21 21 37 48 17 26 78 121 136 212 181 279 430 696 430 717 0 12 -10 27 -22 35 -36 23 -571 258 -585 257 -4 0 -44 -16 -88 -36z m75 -590 c0 -487 -2 -575 -14 -563 -7 8 -84 132 -171 275 -87 143 -208 340 -267 439 -60 98 -108 180 -106 181 2 2 64 30 138 63 74 33 194 87 265 120 72 34 136 61 143 61 9 1 12 -121 12 -576z m267 479 c120 -54 242 -109 271 -122 28 -13 52 -26 52 -29 0 -14 -544 -900 -552 -901 -5 0 -8 259 -8 575 0 353 4 575 9 575 6 0 108 -44 228 -98z"/>
 <path d="M223 2043 c-3 -10 -35 -83 -70 -162 -91 -207 -91 -205 36 -498 120 -275 487 -1129 544 -1266 23 -53 47 -97 54 -97 10 0 13 112 13 575 0 540 -1 576 -18 607 -52 92 -302 504 -397 653 -59 94 -113 178 -119 188 -6 9 -17 17 -24 17 -7 0 -15 -8 -19 -17z"/>
 <path d="M1368 2012 c-20 -26 -41 -59 -48 -73 -7 -13 -59 -96 -115 -184 -55 -88 -141 -227 -189 -310 -49 -82 -106 -178 -127 -212 l-39 -63 0 -575 c0 -479 2 -575 14 -575 8 0 40 62 79 152 36 84 135 315 220 513 85 198 186 434 225 525 39 91 94 219 123 285 77 176 77 183 -14 389 -40 94 -78 171 -84 173 -6 2 -26 -18 -45 -45z"/>
 </g>
<g id="layer102" fill="#f9f9f9" stroke="none">
 <path d="M0 1460 l0 -1460 800 0 800 0 0 1460 0 1460 -800 0 -800 0 0 -1460z m745 1287 c17 -48 36 -92 43 -99 7 -7 12 -36 12 -64 0 -46 -3 -55 -27 -71 -32 -21 -35 -23 -317 -149 -199 -90 -210 -93 -233 -79 -12 9 -23 19 -23 23 0 11 432 484 466 511 15 12 32 20 37 18 6 -2 24 -42 42 -90z m306 6 c124 -128 399 -436 399 -448 0 -6 -10 -17 -23 -24 -20 -10 -51 1 -275 103 -139 63 -264 122 -278 130 -20 14 -24 24 -24 68 0 29 6 58 14 67 7 9 26 50 41 91 15 41 32 81 37 87 14 18 32 5 109 -74z m-103 -314 c266 -115 438 -193 460 -207 12 -8 22 -23 22 -35 0 -21 -249 -438 -430 -717 -58 -91 -119 -186 -136 -212 -16 -27 -33 -48 -37 -48 -4 0 -24 27 -45 60 -20 33 -74 117 -120 185 -46 69 -107 165 -136 213 -256 421 -306 506 -306 522 0 23 29 39 265 143 94 41 206 90 250 110 44 20 84 36 88 36 5 1 61 -22 125 -50z m-682 -396 c6 -10 60 -94 119 -188 95 -149 345 -561 397 -653 17 -31 18 -67 18 -607 0 -463 -3 -575 -13 -575 -7 0 -31 44 -54 97 -57 137 -424 991 -544 1266 -127 293 -127 291 -36 498 35 79 67 152 70 162 4 9 12 17 19 17 7 0 18 -8 24 -17z m1231 -159 c91 -206 91 -213 14 -389 -29 -66 -84 -194 -123 -285 -39 -91 -140 -327 -225 -525 -85 -198 -184 -429 -220 -513 -39 -90 -71 -152 -79 -152 -12 0 -14 96 -14 575 l0 575 39 63 c21 34 78 130 127 212 48 83 134 222 189 310 56 88 108 171 115 184 26 50 83 122 93 118 6 -2 44 -79 84 -173z"/>
 <path d="M655 2378 c-71 -33 -191 -87 -265 -120 -74 -33 -136 -61 -138 -63 -2 -1 46 -83 106 -181 59 -99 180 -296 267 -439 87 -143 164 -267 171 -275 12 -12 14 76 14 563 0 455 -3 577 -12 576 -7 0 -71 -27 -143 -61z"/>
 <path d="M840 1865 c0 -316 3 -575 8 -575 8 1 552 887 552 901 0 3 -24 16 -52 29 -29 13 -151 68 -271 122 -120 54 -222 98 -228 98 -5 0 -9 -222 -9 -575z"/>
 </g>

</svg>